<mxfile host="65bd71144e">
    <diagram id="vtW4aQ1F6CdPE-jkXcMg" name="Page-1">
        <mxGraphModel dx="809" dy="528" grid="1" gridSize="10" guides="1" tooltips="1" connect="1" arrows="1" fold="1" page="1" pageScale="1" pageWidth="1100" pageHeight="850" math="0" shadow="0">
            <root>
                <mxCell id="0"/>
                <mxCell id="1" parent="0"/>
                <mxCell id="2" style="edgeStyle=none;html=1;entryX=0;entryY=0.5;entryDx=0;entryDy=0;" edge="1" parent="1" source="3" target="5">
                    <mxGeometry relative="1" as="geometry"/>
                </mxCell>
                <mxCell id="3" value="&lt;p style=&quot;line-height: 90%;&quot;&gt;&lt;font style=&quot;font-size: 10px;&quot;&gt;Start&lt;/font&gt;&lt;/p&gt;" style="ellipse;whiteSpace=wrap;html=1;aspect=fixed;" vertex="1" parent="1">
                    <mxGeometry x="190" y="185" width="40" height="40" as="geometry"/>
                </mxCell>
                <mxCell id="5" value="&lt;p style=&quot;line-height: 100%; font-size: 7px;&quot;&gt;&lt;font style=&quot;font-size: 7px;&quot;&gt;Has&lt;br&gt;location&lt;/font&gt;&lt;/p&gt;" style="rhombus;whiteSpace=wrap;html=1;" vertex="1" parent="1">
                    <mxGeometry x="270" y="185" width="40" height="40" as="geometry"/>
                </mxCell>
                <mxCell id="6" value="" style="edgeStyle=none;html=1;fontSize=8;startArrow=none;" edge="1" parent="1" source="44" target="8">
                    <mxGeometry relative="1" as="geometry"/>
                </mxCell>
                <mxCell id="7" value="&lt;p style=&quot;line-height: 100%;&quot;&gt;Proceed&lt;br&gt;to&lt;br&gt;event info&lt;/p&gt;" style="whiteSpace=wrap;html=1;aspect=fixed;fontSize=7;" vertex="1" parent="1">
                    <mxGeometry x="390" y="185" width="40" height="40" as="geometry"/>
                </mxCell>
                <mxCell id="8" value="&lt;font style=&quot;font-size: 10px;&quot;&gt;Finish&lt;/font&gt;" style="ellipse;whiteSpace=wrap;html=1;aspect=fixed;fontSize=7;" vertex="1" parent="1">
                    <mxGeometry x="910" y="185" width="40" height="40" as="geometry"/>
                </mxCell>
                <mxCell id="9" value="" style="endArrow=classic;html=1;fontSize=8;" edge="1" parent="1">
                    <mxGeometry relative="1" as="geometry">
                        <mxPoint x="310" y="204.71000000000004" as="sourcePoint"/>
                        <mxPoint x="390" y="205" as="targetPoint"/>
                    </mxGeometry>
                </mxCell>
                <mxCell id="10" value="&amp;nbsp; Yes&amp;nbsp;&amp;nbsp;" style="edgeLabel;resizable=0;html=1;align=center;verticalAlign=middle;fontSize=7;" connectable="0" vertex="1" parent="9">
                    <mxGeometry relative="1" as="geometry"/>
                </mxCell>
                <mxCell id="11" value="" style="edgeStyle=none;html=1;fontSize=8;exitX=0.5;exitY=1;exitDx=0;exitDy=0;entryX=0;entryY=0.5;entryDx=0;entryDy=0;" edge="1" parent="1" source="12" target="20">
                    <mxGeometry relative="1" as="geometry">
                        <Array as="points">
                            <mxPoint x="290" y="485"/>
                        </Array>
                        <mxPoint x="390" y="485" as="targetPoint"/>
                    </mxGeometry>
                </mxCell>
                <mxCell id="12" value="&lt;p style=&quot;line-height: 100%; font-size: 7px;&quot;&gt;Find location&lt;/p&gt;" style="whiteSpace=wrap;html=1;aspect=fixed;fontSize=8;" vertex="1" parent="1">
                    <mxGeometry x="270" y="340" width="40" height="40" as="geometry"/>
                </mxCell>
                <mxCell id="13" value="" style="endArrow=classic;html=1;fontSize=8;entryX=0.5;entryY=0;entryDx=0;entryDy=0;" edge="1" parent="1" target="12">
                    <mxGeometry relative="1" as="geometry">
                        <mxPoint x="289.71000000000004" y="225" as="sourcePoint"/>
                        <mxPoint x="289.71" y="285" as="targetPoint"/>
                        <Array as="points"/>
                    </mxGeometry>
                </mxCell>
                <mxCell id="14" value="&lt;p style=&quot;line-height: 0%;&quot;&gt;&amp;nbsp;No&amp;nbsp;&lt;/p&gt;" style="edgeLabel;resizable=0;html=1;align=center;verticalAlign=middle;fontSize=8;spacingLeft=7;spacingRight=7;" connectable="0" vertex="1" parent="13">
                    <mxGeometry relative="1" as="geometry">
                        <mxPoint y="-20" as="offset"/>
                    </mxGeometry>
                </mxCell>
                <mxCell id="48" style="edgeStyle=none;html=1;exitX=1;exitY=0.5;exitDx=0;exitDy=0;entryX=0;entryY=0.5;entryDx=0;entryDy=0;" edge="1" parent="1" source="20" target="47">
                    <mxGeometry relative="1" as="geometry"/>
                </mxCell>
                <mxCell id="20" value="&lt;p style=&quot;line-height: 100%;&quot;&gt;Proceed to event info&lt;/p&gt;" style="whiteSpace=wrap;html=1;aspect=fixed;fontSize=7;" vertex="1" parent="1">
                    <mxGeometry x="410" y="465" width="40" height="40" as="geometry"/>
                </mxCell>
                <mxCell id="36" value="" style="edgeStyle=none;html=1;fontSize=8;endArrow=classic;endFill=1;" edge="1" parent="1" source="7" target="37">
                    <mxGeometry relative="1" as="geometry">
                        <mxPoint x="430" y="205" as="sourcePoint"/>
                        <mxPoint x="700" y="205" as="targetPoint"/>
                    </mxGeometry>
                </mxCell>
                <mxCell id="37" value="&lt;p style=&quot;line-height: 100%;&quot;&gt;Enter event info&lt;/p&gt;" style="whiteSpace=wrap;html=1;aspect=fixed;fontSize=7;" vertex="1" parent="1">
                    <mxGeometry x="510" y="185" width="40" height="40" as="geometry"/>
                </mxCell>
                <mxCell id="38" value="" style="edgeStyle=none;html=1;fontSize=8;startArrow=none;endArrow=classic;endFill=1;" edge="1" parent="1" source="37" target="41">
                    <mxGeometry relative="1" as="geometry">
                        <mxPoint x="570" y="205" as="sourcePoint"/>
                        <mxPoint x="700" y="205" as="targetPoint"/>
                    </mxGeometry>
                </mxCell>
                <mxCell id="39" style="edgeStyle=none;html=1;exitX=0.5;exitY=1;exitDx=0;exitDy=0;fontSize=7;endArrow=classic;endFill=1;entryX=1;entryY=0.5;entryDx=0;entryDy=0;" edge="1" parent="1" source="41" target="12">
                    <mxGeometry relative="1" as="geometry">
                        <mxPoint x="640" y="110" as="targetPoint"/>
                        <Array as="points">
                            <mxPoint x="640" y="360"/>
                        </Array>
                    </mxGeometry>
                </mxCell>
                <mxCell id="40" value="No" style="edgeLabel;html=1;align=center;verticalAlign=middle;resizable=0;points=[];fontSize=7;spacing=1;spacingTop=4;" vertex="1" connectable="0" parent="39">
                    <mxGeometry relative="1" as="geometry">
                        <mxPoint x="97" y="-90" as="offset"/>
                    </mxGeometry>
                </mxCell>
                <mxCell id="41" value="&lt;p style=&quot;line-height: 100%; font-size: 7px;&quot;&gt;Is valid location&lt;/p&gt;" style="rhombus;whiteSpace=wrap;html=1;" vertex="1" parent="1">
                    <mxGeometry x="620" y="185" width="40" height="40" as="geometry"/>
                </mxCell>
                <mxCell id="42" value="" style="edgeStyle=none;html=1;fontSize=8;startArrow=none;endArrow=none;" edge="1" parent="1" source="41" target="44">
                    <mxGeometry relative="1" as="geometry">
                        <mxPoint x="660" y="205" as="sourcePoint"/>
                        <mxPoint x="910" y="205" as="targetPoint"/>
                    </mxGeometry>
                </mxCell>
                <mxCell id="43" value="&lt;font style=&quot;font-size: 7px;&quot;&gt;&amp;nbsp; Yes&amp;nbsp;&amp;nbsp;&lt;/font&gt;" style="edgeLabel;html=1;align=center;verticalAlign=middle;resizable=0;points=[];" vertex="1" connectable="0" parent="42">
                    <mxGeometry x="-0.4208" y="1" relative="1" as="geometry">
                        <mxPoint x="7" y="-1" as="offset"/>
                    </mxGeometry>
                </mxCell>
                <mxCell id="44" value="&lt;p style=&quot;line-height: 100%;&quot;&gt;Proceed to event view&lt;/p&gt;" style="whiteSpace=wrap;html=1;aspect=fixed;fontSize=7;" vertex="1" parent="1">
                    <mxGeometry x="770" y="185" width="40" height="40" as="geometry"/>
                </mxCell>
                <mxCell id="49" style="edgeStyle=none;html=1;exitX=1;exitY=0.5;exitDx=0;exitDy=0;entryX=0.5;entryY=1;entryDx=0;entryDy=0;" edge="1" parent="1" source="47" target="44">
                    <mxGeometry relative="1" as="geometry">
                        <Array as="points">
                            <mxPoint x="790" y="485"/>
                        </Array>
                    </mxGeometry>
                </mxCell>
                <mxCell id="47" value="&lt;p style=&quot;line-height: 100%;&quot;&gt;Enter event info&lt;/p&gt;" style="whiteSpace=wrap;html=1;aspect=fixed;fontSize=7;" vertex="1" parent="1">
                    <mxGeometry x="560" y="465" width="40" height="40" as="geometry"/>
                </mxCell>
            </root>
        </mxGraphModel>
    </diagram>
</mxfile>